<?xml version="1.0" encoding="UTF-8"?>
<svg width="14px" height="14px" viewBox="0 0 14 14" version="1.1" xmlns="http://www.w3.org/2000/svg" xmlns:xlink="http://www.w3.org/1999/xlink">
    <!-- Generator: Sketch 63.1 (92452) - https://sketch.com -->
    <title>Batch folding</title>
    <desc>Created with Sketch.</desc>
    <g id="页面-1" stroke="none" stroke-width="1" fill="none" fill-rule="evenodd">
        <g id="基础详情备份-3" transform="translate(-322.000000, -205.000000)" fill="#343434" fill-rule="nonzero">
            <g id="Batch-folding" transform="translate(321.000000, 204.000000)">
                <rect id="矩形" opacity="0" x="0" y="0" width="16" height="16"></rect>
                <path d="M11.75,3.75 L2.25,3.75 C1.9734375,3.75 1.75,3.9734375 1.75,4.25 L1.75,13.75 C1.75,14.0265625 1.9734375,14.25 2.25,14.25 L11.75,14.25 C12.0265625,14.25 12.25,14.0265625 12.25,13.75 L12.25,4.25 C12.25,3.9734375 12.0265625,3.75 11.75,3.75 Z M11.125,13.125 L2.875,13.125 L2.875,4.875 L11.125,4.875 L11.125,13.125 Z M13.75,1.75 L4.125,1.75 C4.05625,1.75 4,1.80625 4,1.875 L4,2.75 C4,2.81875 4.05625,2.875 4.125,2.875 L13.125,2.875 L13.125,11.875 C13.125,11.94375 13.18125,12 13.25,12 L14.125,12 C14.19375,12 14.25,11.94375 14.25,11.875 L14.25,2.25 C14.25,1.9734375 14.0265625,1.75 13.75,1.75 Z M4.6875,8.59375 L9.3125,8.59375 L9.3125,9.59375 L4.6875,9.59375 L4.6875,8.59375 Z" id="形状"></path>
            </g>
        </g>
    </g>
</svg>