<?xml version="1.0" encoding="UTF-8"?>
<svg width="14px" height="14px" viewBox="0 0 14 14" version="1.1" xmlns="http://www.w3.org/2000/svg" xmlns:xlink="http://www.w3.org/1999/xlink">
    <!-- Generator: Sketch 63.1 (92452) - https://sketch.com -->
    <title>detail</title>
    <desc>Created with Sketch.</desc>
    <g id="页面-1" stroke="none" stroke-width="1" fill="none" fill-rule="evenodd">
        <g id="基础详情备份-3" transform="translate(-722.000000, -278.000000)" fill="#343434" fill-rule="nonzero">
            <g id="detail" transform="translate(721.000000, 277.000000)">
                <rect id="矩形" opacity="0" x="0" y="0" width="16" height="16"></rect>
                <path d="M13.75,1.75 L2.25,1.75 C1.9734375,1.75 1.75,1.9734375 1.75,2.25 L1.75,13.75 C1.75,14.0265625 1.9734375,14.25 2.25,14.25 L13.75,14.25 C14.0265625,14.25 14.25,14.0265625 14.25,13.75 L14.25,2.25 C14.25,1.9734375 14.0265625,1.75 13.75,1.75 Z M13.125,13.125 L2.875,13.125 L2.875,2.875 L13.125,2.875 L13.125,13.125 Z M7.6875,6.25 L10.5625,6.25 C10.63125,6.25 10.6875,6.19375 10.6875,6.125 L10.6875,5.375 C10.6875,5.30625 10.63125,5.25 10.5625,5.25 L7.6875,5.25 C7.61875,5.25 7.5625,5.30625 7.5625,5.375 L7.5625,6.125 C7.5625,6.19375 7.61875,6.25 7.6875,6.25 Z M7.6875,8.5 L10.5625,8.5 C10.63125,8.5 10.6875,8.44375 10.6875,8.375 L10.6875,7.625 C10.6875,7.55625 10.63125,7.5 10.5625,7.5 L7.6875,7.5 C7.61875,7.5 7.5625,7.55625 7.5625,7.625 L7.5625,8.375 C7.5625,8.44375 7.61875,8.5 7.6875,8.5 Z M7.6875,10.75 L10.5625,10.75 C10.63125,10.75 10.6875,10.69375 10.6875,10.625 L10.6875,9.875 C10.6875,9.80625 10.63125,9.75 10.5625,9.75 L7.6875,9.75 C7.61875,9.75 7.5625,9.80625 7.5625,9.875 L7.5625,10.625 C7.5625,10.69375 7.61875,10.75 7.6875,10.75 Z M5.3125,5.75 C5.3125,6.09517797 5.59232203,6.375 5.9375,6.375 C6.28267797,6.375 6.5625,6.09517797 6.5625,5.75 C6.5625,5.40482203 6.28267797,5.125 5.9375,5.125 C5.59232203,5.125 5.3125,5.40482203 5.3125,5.75 L5.3125,5.75 Z M5.3125,8 C5.3125,8.34517797 5.59232203,8.625 5.9375,8.625 C6.28267797,8.625 6.5625,8.34517797 6.5625,8 C6.5625,7.65482203 6.28267797,7.375 5.9375,7.375 C5.59232203,7.375 5.3125,7.65482203 5.3125,8 Z M5.3125,10.25 C5.3125,10.595178 5.59232203,10.875 5.9375,10.875 C6.28267797,10.875 6.5625,10.595178 6.5625,10.25 C6.5625,9.90482203 6.28267797,9.625 5.9375,9.625 C5.59232203,9.625 5.3125,9.90482203 5.3125,10.25 L5.3125,10.25 Z" id="形状"></path>
            </g>
        </g>
    </g>
</svg>