<?xml version="1.0" encoding="UTF-8"?>
<svg width="14px" height="12px" viewBox="0 0 14 12" version="1.1" xmlns="http://www.w3.org/2000/svg" xmlns:xlink="http://www.w3.org/1999/xlink">
    <!-- Generator: Sketch 63.1 (92452) - https://sketch.com -->
    <title>image</title>
    <desc>Created with Sketch.</desc>
    <g id="页面-1" stroke="none" stroke-width="1" fill="none" fill-rule="evenodd">
        <g id="基础详情备份-3" transform="translate(-322.000000, -1081.000000)" fill="#343434" fill-rule="nonzero">
            <g id="image" transform="translate(321.000000, 1079.000000)">
                <rect id="矩形" opacity="0" x="0" y="0" width="16" height="16"></rect>
                <path d="M14.5,2.5 L1.5,2.5 C1.2234375,2.5 1,2.7234375 1,3 L1,13 C1,13.2765625 1.2234375,13.5 1.5,13.5 L14.5,13.5 C14.7765625,13.5 15,13.2765625 15,13 L15,3 C15,2.7234375 14.7765625,2.5 14.5,2.5 Z M13.875,12.375 L2.125,12.375 L2.125,11.7515625 L4.2890625,9.184375 L6.634375,11.965625 L10.2828125,7.640625 L13.875,11.9 L13.875,12.375 Z M13.875,10.346875 L10.378125,6.2 C10.328125,6.140625 10.2375,6.140625 10.1875,6.2 L6.634375,10.4125 L4.384375,7.7453125 C4.334375,7.6859375 4.24375,7.6859375 4.19375,7.7453125 L2.125,10.1984375 L2.125,3.625 L13.875,3.625 L13.875,10.346875 Z M4.75,7.125 C5.509375,7.125 6.125,6.509375 6.125,5.75 C6.125,4.990625 5.509375,4.375 4.75,4.375 C3.990625,4.375 3.375,4.990625 3.375,5.75 C3.375,6.509375 3.990625,7.125 4.75,7.125 Z M4.75,5.3125 C4.9921875,5.3125 5.1875,5.5078125 5.1875,5.75 C5.1875,5.9921875 4.9921875,6.1875 4.75,6.1875 C4.5078125,6.1875 4.3125,5.9921875 4.3125,5.75 C4.3125,5.5078125 4.5078125,5.3125 4.75,5.3125 Z" id="形状"></path>
            </g>
        </g>
    </g>
</svg>