<?xml version="1.0" encoding="UTF-8"?>
<svg width="14px" height="14px" viewBox="0 0 14 14" version="1.1" xmlns="http://www.w3.org/2000/svg" xmlns:xlink="http://www.w3.org/1999/xlink">
    <!-- Generator: Sketch 63.1 (92452) - https://sketch.com -->
    <title>money collect</title>
    <desc>Created with Sketch.</desc>
    <g id="页面-1" stroke="none" stroke-width="1" fill="none" fill-rule="evenodd">
        <g id="基础详情备份-3" transform="translate(-1522.000000, -278.000000)" fill="#343434" fill-rule="nonzero">
            <g id="money-collect" transform="translate(1521.000000, 277.000000)">
                <rect id="矩形" opacity="0" x="0" y="0" width="16" height="16"></rect>
                <path d="M14.2421875,10.9484375 C14.21875,10.8828125 14.146875,10.85 14.08125,10.8734375 L13.125,11.221875 L13.125,2.8125 C13.125,2.225 12.65,1.75 12.0625,1.75 L3.9375,1.75 C3.35,1.75 2.875,2.225 2.875,2.8125 L2.875,11.221875 L1.9171875,10.8734375 C1.903125,10.86875 1.8890625,10.865625 1.875,10.865625 C1.80625,10.865625 1.75,10.921875 1.75,10.990625 L1.75,11.921875 C1.75,11.9734375 1.7828125,12.0203125 1.8328125,12.0390625 L7.828125,14.2203125 C7.9390625,14.2609375 8.059375,14.2609375 8.1703125,14.2203125 L14.1671875,12.040625 C14.2171875,12.021875 14.25,11.975 14.25,11.9234375 L14.25,10.9921875 C14.25,10.9765625 14.246875,10.9625 14.2421875,10.9484375 Z M8,13.0859375 L4,11.63125 L4,2.875 L12,2.875 L12,11.63125 L8,13.0859375 Z M10.321875,4.875 L9.4703125,4.875 C9.4234375,4.875 9.3796875,4.9015625 9.359375,4.94375 L8.0359375,7.58125 L7.984375,7.58125 L6.6609375,4.94375 C6.6390625,4.9015625 6.596875,4.875 6.55,4.875 L5.6796875,4.875 C5.659375,4.875 5.6390625,4.8796875 5.6203125,4.890625 C5.559375,4.9234375 5.5375,5 5.5703125,5.059375 L7.19375,8.053125 L6.303125,8.053125 C6.234375,8.053125 6.178125,8.109375 6.178125,8.178125 L6.178125,8.6015625 C6.178125,8.6703125 6.234375,8.7265625 6.303125,8.7265625 L7.490625,8.7265625 L7.490625,9.3359375 L6.303125,9.3359375 C6.234375,9.3359375 6.178125,9.3921875 6.178125,9.4609375 L6.178125,9.884375 C6.178125,9.953125 6.234375,10.009375 6.303125,10.009375 L7.490625,10.009375 L7.490625,11 C7.490625,11.06875 7.546875,11.125 7.615625,11.125 L8.3953125,11.125 C8.4640625,11.125 8.5203125,11.06875 8.5203125,11 L8.5203125,10.0078125 L9.7125,10.0078125 C9.78125,10.0078125 9.8375,9.9515625 9.8375,9.8828125 L9.8375,9.459375 C9.8375,9.390625 9.78125,9.334375 9.7125,9.334375 L8.5203125,9.334375 L8.5203125,8.725 L9.7125,8.725 C9.78125,8.725 9.8375,8.66875 9.8375,8.6 L9.8375,8.1765625 C9.8375,8.1078125 9.78125,8.0515625 9.7125,8.0515625 L8.8125,8.0515625 L10.4328125,5.0578125 C10.4421875,5.0390625 10.4484375,5.01875 10.4484375,4.9984375 C10.446875,4.93125 10.390625,4.875 10.321875,4.875 Z" id="形状"></path>
            </g>
        </g>
    </g>
</svg>