<?xml version="1.0" encoding="UTF-8"?>
<svg width="31px" height="14px" viewBox="0 0 31 14" version="1.1" xmlns="http://www.w3.org/2000/svg" xmlns:xlink="http://www.w3.org/1999/xlink">
    <title>编组备份 4</title>
    <g id="页面-1" stroke="none" stroke-width="1" fill="none" fill-rule="evenodd">
        <g id="基础详情备份-9" transform="translate(-1192.000000, -459.000000)">
            <g id="编组备份-4" transform="translate(1192.000000, 459.000000)">
                <rect id="矩形" fill="#52C41A" x="0" y="0" width="31" height="14" rx="4"></rect>
                <path d="M6.68,10.6 L6.68,6.75 C6.68,5.98 6.61,5.2 6.57,4.46 L6.61,4.46 L7.4,5.97 L10.07,10.6 L11.02,10.6 L11.02,3.27 L10.14,3.27 L10.14,7.08 C10.14,7.84 10.21,8.66 10.26,9.4 L10.21,9.4 L9.43,7.89 L6.76,3.27 L5.8,3.27 L5.8,10.6 L6.68,10.6 Z M15.13,10.73 C15.87,10.73 16.45,10.48 16.93,10.17 L16.6,9.57 C16.2,9.84 15.77,10 15.24,10 C14.21,10 13.5,9.26 13.44,8.1 L17.1,8.1 C17.12,7.97 17.14,7.78 17.14,7.58 C17.14,6.03 16.36,5.03 14.98,5.03 C13.72,5.03 12.53,6.13 12.53,7.89 C12.53,9.68 13.69,10.73 15.13,10.73 Z M16.34,7.45 L13.43,7.45 C13.54,6.38 14.22,5.76 14.99,5.76 C15.84,5.76 16.34,6.35 16.34,7.45 Z M20.41,10.6 L21.17,7.69 C21.31,7.17 21.42,6.66 21.54,6.11 L21.59,6.11 C21.72,6.66 21.82,7.16 21.96,7.67 L22.75,10.6 L23.85,10.6 L25.31,5.17 L24.45,5.17 L23.65,8.31 C23.53,8.83 23.43,9.32 23.31,9.83 L23.27,9.83 C23.14,9.32 23.02,8.83 22.89,8.31 L22.04,5.17 L21.15,5.17 L20.31,8.31 C20.17,8.82 20.06,9.32 19.94,9.83 L19.89,9.83 C19.79,9.32 19.68,8.83 19.57,8.31 L18.76,5.17 L17.83,5.17 L19.34,10.6 L20.41,10.6 Z" id="New" fill="#FFFFFF" fill-rule="nonzero"></path>
            </g>
        </g>
    </g>
</svg>