<?xml version="1.0" encoding="UTF-8"?>
<svg width="27px" height="14px" viewBox="0 0 27 14" version="1.1" xmlns="http://www.w3.org/2000/svg" xmlns:xlink="http://www.w3.org/1999/xlink">
    <title>编组 2</title>
    <g id="页面-1" stroke="none" stroke-width="1" fill="none" fill-rule="evenodd">
        <g id="基础详情备份-9" transform="translate(-390.000000, -459.000000)">
            <g id="编组-2" transform="translate(390.000000, 459.000000)">
                <rect id="矩形" fill="#E6E6E6" x="0" y="0" width="27" height="14" rx="4"></rect>
                <path d="M9.13836898,11 C10.9832888,11 12.276738,9.54635352 12.276738,7.22249691 C12.276738,4.8986403 10.9832888,3.48454883 9.13836898,3.48454883 C7.2934492,3.48454883 6,4.8986403 6,7.22249691 C6,9.54635352 7.2934492,11 9.13836898,11 Z M9.13836898,10.1990111 C7.81483957,10.1990111 6.95254011,9.03213844 6.95254011,7.22249691 C6.95254011,5.40296663 7.81483957,4.2855377 9.13836898,4.2855377 C10.4518717,4.2855377 11.3241979,5.40296663 11.3241979,7.22249691 C11.3241979,9.03213844 10.4518717,10.1990111 9.13836898,10.1990111 Z M14.7433155,11 C14.9839572,11 15.144385,10.9703337 15.2747326,10.92089 L15.144385,10.2286774 C15.0441176,10.2484549 15.0040107,10.2484549 14.953877,10.2484549 C14.8135027,10.2484549 14.6931818,10.1396786 14.6931818,9.86279357 L14.6931818,3 L13.7807487,3 L13.7807487,9.80346106 C13.7807487,10.5648949 14.0614973,11 14.7433155,11 Z M18.4933155,11 C19.1450535,11 19.7165775,10.6538937 20.1477273,10.2385661 L20.1677807,10.2385661 L20.2580214,10.8714462 L21,10.8714462 L21,3 L20.0875668,3 L20.0875668,5.06674907 L20.1377005,5.99629172 C19.6564171,5.60074166 19.2453209,5.36341162 18.6036096,5.36341162 C17.3602941,5.36341162 16.2473262,6.45117429 16.2473262,8.19159456 C16.2473262,9.98145859 17.1296791,11 18.4933155,11 Z M18.6938503,10.2484549 C17.7312834,10.2484549 17.1898396,9.47713226 17.1898396,8.18170581 C17.1898396,6.95550062 17.8816845,6.12484549 18.7640374,6.12484549 C19.2152406,6.12484549 19.6263369,6.28306551 20.0875668,6.68850433 L20.0875668,9.50679852 C19.6363636,10.0012361 19.1951872,10.2484549 18.6938503,10.2484549 Z" id="Old" fill="#656565" fill-rule="nonzero"></path>
            </g>
        </g>
    </g>
</svg>