<?xml version="1.0" encoding="UTF-8"?>
<svg width="14px" height="14px" viewBox="0 0 14 14" version="1.1" xmlns="http://www.w3.org/2000/svg" xmlns:xlink="http://www.w3.org/1999/xlink">
    <!-- Generator: Sketch 63.1 (92452) - https://sketch.com -->
    <title>tag</title>
    <desc>Created with Sketch.</desc>
    <g id="页面-1" stroke="none" stroke-width="1" fill="none" fill-rule="evenodd">
        <g id="基础详情备份-3" transform="translate(-322.000000, -1009.000000)" fill="#343434" fill-rule="nonzero">
            <g id="tag" transform="translate(321.000000, 1008.000000)">
                <rect id="矩形" opacity="0" x="0" y="0" width="16" height="16"></rect>
                <path d="M14.65625,7.16875 L14.19375,2.284375 C14.1703125,2.03125 13.96875,1.83125 13.715625,1.80625 L8.83125,1.34375 L8.825,1.34375 C8.775,1.34375 8.7359375,1.359375 8.70625,1.3890625 L1.3890625,8.70625 C1.328125,8.7671875 1.328125,8.865625 1.3890625,8.9265625 L7.0734375,14.6109375 C7.103125,14.640625 7.1421875,14.65625 7.184375,14.65625 C7.2265625,14.65625 7.265625,14.640625 7.2953125,14.6109375 L14.6125,7.29375 C14.64375,7.2609375 14.659375,7.215625 14.65625,7.16875 Z M7.1828125,13.0421875 L2.9578125,8.8171875 L9.203125,2.571875 L13.0625,2.9375 L13.428125,6.796875 L7.1828125,13.0421875 Z M10.625,4 C9.8671875,4 9.25,4.6171875 9.25,5.375 C9.25,6.1328125 9.8671875,6.75 10.625,6.75 C11.3828125,6.75 12,6.1328125 12,5.375 C12,4.6171875 11.3828125,4 10.625,4 Z M10.625,5.875 C10.3484375,5.875 10.125,5.6515625 10.125,5.375 C10.125,5.0984375 10.3484375,4.875 10.625,4.875 C10.9015625,4.875 11.125,5.0984375 11.125,5.375 C11.125,5.6515625 10.9015625,5.875 10.625,5.875 Z" id="形状"></path>
            </g>
        </g>
    </g>
</svg>